<svg
    xmlns="http://www.w3.org/2000/svg" 
    xmlns:xlink= "http://www.w3.org/1999/xlink" 
    width="15" 
    height="15" 
    viewBox="0 0 15 15"
    style="fill:rgba(117, 117, 117, 1);"
>
    <path
        d="M7.44 2.32c.03-.1.09-.1.12 0l1.2 3.53a.29.29 0 0 0 .26.2h3.88c.11 0 .13.04.04.1L9.8 8.33a.27.27 0 0 0-.1.29l1.2 3.53c.03.1-.01.13-.1.07l-3.14-2.18a.3.3 0 0 0-.32 0L4.2 12.22c-.1.06-.14.03-.1-.07l1.2-3.53a.27.27 0 0 0-.1-.3L2.06 6.16c-.1-.06-.07-.12.03-.12h3.89a.29.29 0 0 0 .26-.19l1.2-3.52z">
    </path>
</svg>